<?xml version="1.0" encoding="UTF-8"?>
<svg version="1.1" xmlns="http://www.w3.org/2000/svg" width="500" height="500">
<path d="M0 0 C1.27358909 -0.00382555 2.54717818 -0.00765109 3.85936087 -0.01159257 C7.36480202 -0.02180793 10.87014015 -0.01970739 14.37558949 -0.01541197 C18.16780309 -0.0129329 21.95999263 -0.02197352 25.75219727 -0.02944946 C33.17028683 -0.04216599 40.58834014 -0.04399395 48.00643877 -0.0416492 C54.03962261 -0.0398624 60.07279548 -0.04162343 66.10597801 -0.04587364 C66.96635821 -0.04646883 67.82673841 -0.04706402 68.71319073 -0.04767724 C70.46135762 -0.04888906 72.20952451 -0.0501032 73.95769139 -0.05131962 C90.33372266 -0.06218351 106.70973332 -0.06003818 123.08576574 -0.05393478 C138.04564326 -0.04876715 153.00545563 -0.06001905 167.96532027 -0.07903299 C183.34973109 -0.09843566 198.73411113 -0.10666311 214.11853427 -0.10290974 C222.74622822 -0.10100132 231.37386674 -0.10345016 240.00155067 -0.11762428 C247.34682395 -0.12957009 254.69200768 -0.13090727 262.03728227 -0.11883412 C265.77981877 -0.11296769 269.52219174 -0.1117835 273.2647171 -0.12383652 C277.33407677 -0.13678905 281.40305147 -0.12617788 285.47241211 -0.11352539 C287.22095127 -0.12458682 287.22095127 -0.12458682 289.00481445 -0.13587171 C311.05863526 0.00758015 331.2048352 8.20089749 346.86418152 23.63569641 C352.11310151 29.00086032 356.32914825 34.65035292 359.92668152 41.26069641 C360.38429871 42.0689386 360.84191589 42.87718079 361.31340027 43.70991516 C368.25572331 56.65640947 370.07768647 69.41872688 370.06712341 83.85299683 C370.0715801 85.75825391 370.0715801 85.75825391 370.07612681 87.70200104 C370.08416406 91.21645211 370.08598455 94.73088272 370.08672428 98.2453419 C370.08858058 102.04034698 370.09613084 105.83534159 370.1028595 109.63034058 C370.11642041 117.92398855 370.12246414 126.21763167 370.12687016 134.51128888 C370.12963657 139.69435493 370.13387467 144.87741913 370.13837433 150.06048393 C370.15056445 164.4234852 370.16086402 178.78648498 370.16424942 193.14949131 C370.16446899 194.0681183 370.16468855 194.9867453 370.16491477 195.93320948 C370.16513305 196.85398012 370.16535133 197.77475076 370.16557622 198.72342354 C370.16601968 200.58911932 370.16646624 202.45481509 370.16691589 204.32051086 C370.16713732 205.24595182 370.16735875 206.17139277 370.16758689 207.12487739 C370.17153254 222.1108718 370.18898061 237.09681751 370.21227542 252.08279312 C370.2360233 267.48515329 370.24845285 282.88748906 370.24961734 298.28986782 C370.25053221 306.93104038 370.25623694 315.5721495 370.27443695 324.21330452 C370.28988444 331.57330777 370.29493112 338.93322797 370.28669885 346.29324437 C370.28280863 350.04385854 370.28364156 353.79430568 370.2977562 357.54489899 C370.31296287 361.62322166 370.30458051 365.70117273 370.29417419 369.7795105 C370.3062588 371.53214237 370.3062588 371.53214237 370.31858754 373.32018095 C370.24259367 386.12501522 367.42120967 397.72061293 361.92668152 409.26069641 C361.50773621 410.17464172 361.08879089 411.08858704 360.65715027 412.03022766 C351.26287489 430.95414263 333.15088495 444.28894901 313.64152527 451.21772766 C304.35560866 453.82481466 295.47254583 454.55240141 285.85336304 454.52139282 C284.57977395 454.52521837 283.30618486 454.52904392 281.99400216 454.53298539 C278.48856102 454.54320075 274.98322289 454.54110022 271.47777355 454.5368048 C267.68555995 454.53432572 263.89337041 454.54336634 260.10116577 454.55084229 C252.68307621 454.56355882 245.2650229 454.56538677 237.84692427 454.56304202 C231.81374043 454.56125522 225.78056755 454.56301626 219.74738503 454.56726646 C218.45681473 454.56815925 218.45681473 454.56815925 217.14017231 454.56907007 C215.39200542 454.57028189 213.64383853 454.57149602 211.89567164 454.57271244 C195.51964037 454.58357634 179.14362972 454.581431 162.7675973 454.5753276 C147.80771978 454.57015997 132.84790741 454.58141187 117.88804277 454.60042582 C102.50363195 454.61982849 87.1192519 454.62805593 71.73482877 454.62430257 C63.10713482 454.62239414 54.47949629 454.62484298 45.85181236 454.63901711 C38.50653908 454.65096291 31.16135535 454.65230009 23.81608077 454.64022694 C20.07354427 454.63436051 16.3311713 454.63317633 12.58864594 454.64522934 C8.51928627 454.65818187 4.45031156 454.64757071 0.38095093 454.63491821 C-0.78474184 454.6422925 -1.95043461 454.64966678 -3.15145141 454.65726453 C-25.6988343 454.51060223 -45.41330246 446.06840511 -61.44831848 430.38569641 C-66.55364426 425.19797351 -70.55726466 419.65008454 -74.07331848 413.26069641 C-74.53222473 412.45116516 -74.99113098 411.64163391 -75.46394348 410.80757141 C-80.74408783 400.94706088 -84.18623798 389.89310236 -84.20753956 378.66324806 C-84.2119974 377.56738274 -84.21645525 376.47151742 -84.22104818 375.34244406 C-84.22086381 374.14907726 -84.22067945 372.95571046 -84.2204895 371.72618103 C-84.22416619 370.45010809 -84.22784288 369.17403516 -84.23163098 367.85929334 C-84.24161713 364.32364349 -84.24536231 360.78801061 -84.24802029 357.25234866 C-84.2519335 353.43615424 -84.26151121 349.61997312 -84.27023315 345.80378723 C-84.28997032 336.58996686 -84.30006092 327.37614544 -84.30896094 318.16230923 C-84.31334891 313.81797182 -84.31871445 309.47363562 -84.32394981 305.12929916 C-84.3409604 290.67798681 -84.35545262 276.22667521 -84.36269855 261.77535439 C-84.3646083 258.02746708 -84.36652865 254.27957978 -84.3684845 250.5316925 C-84.36896824 249.60022944 -84.36945198 248.66876638 -84.36995038 247.70907716 C-84.37824341 232.63382336 -84.40356879 217.55864909 -84.43606517 202.48342998 C-84.46919269 186.98843115 -84.48715251 171.49347266 -84.4903428 155.99843824 C-84.49250278 147.30574381 -84.50117602 138.61316532 -84.52680397 129.92050552 C-84.548589 122.51440672 -84.55652329 115.10845203 -84.54683719 107.70232482 C-84.54231476 103.92914177 -84.54405727 100.15625555 -84.56359863 96.38311386 C-84.70527919 67.43413993 -84.70527919 67.43413993 -80.07331848 54.26069641 C-79.75206151 53.29975885 -79.43080454 52.3388213 -79.09981251 51.34876442 C-75.25173988 40.33848335 -68.01527565 31.58971648 -60.07331848 23.26069641 C-59.28054504 22.33837219 -59.28054504 22.33837219 -58.47175598 21.39741516 C-43.95687533 5.20774059 -20.77613222 -0.06697436 0 0 Z " fill="#000000" transform="translate(107.07331848144531,22.739303588867188)"/>
<path d="M0 0 C1.58937464 -0.00763252 3.17874562 -0.01606188 4.76811218 -0.02522278 C9.06364265 -0.04706265 13.35910198 -0.05595206 17.65468168 -0.06104922 C20.34352289 -0.06470426 23.03234578 -0.07095012 25.72117996 -0.07805061 C35.1160488 -0.10250532 44.51086269 -0.11558909 53.90576172 -0.11914062 C62.64059202 -0.12277626 71.37507106 -0.15268382 80.10979402 -0.19454521 C87.6294179 -0.22931026 95.14892564 -0.24469011 102.66862929 -0.24538666 C107.15092119 -0.24617713 111.63285442 -0.2548103 116.11506271 -0.28338432 C120.33256531 -0.30967316 124.54941449 -0.31171051 128.76696205 -0.29572868 C130.30719371 -0.29392295 131.84746392 -0.30052519 133.3876133 -0.31654739 C146.80887374 -0.44756545 157.40354195 2.73659742 167.18994141 12.30639648 C169.13858044 14.85058535 170.72793859 17.45872032 172.18994141 20.30639648 C172.54185547 20.9006543 172.89376953 21.49491211 173.25634766 22.10717773 C175.78850475 28.07204987 175.33714175 34.92905366 175.32275391 41.29077148 C175.32371063 42.22818176 175.32466736 43.16559204 175.32565308 44.13140869 C175.32633043 46.10135974 175.32450731 48.07131307 175.3203125 50.04125977 C175.31493378 53.06067877 175.32028491 56.07995067 175.32666016 59.09936523 C175.32599977 61.01733431 175.32471942 62.9353033 175.32275391 64.85327148 C175.32477814 65.75640076 175.32680237 66.65953003 175.32888794 67.59002686 C175.3241597 68.8471347 175.3241597 68.8471347 175.31933594 70.12963867 C175.31854034 70.86575378 175.31774475 71.6018689 175.31692505 72.36029053 C175.18994141 74.30639648 175.18994141 74.30639648 174.18994141 77.30639648 C171.12951809 78.32653759 169.02361447 78.44330464 165.81794739 78.46461487 C164.1457589 78.4792981 164.1457589 78.4792981 162.43978882 78.49427795 C161.21627716 78.50003342 159.9927655 78.50578888 158.73217773 78.51171875 C157.44426834 78.52161835 156.15635895 78.53151794 154.829422 78.54171753 C151.29667433 78.56876147 147.76391331 78.58977379 144.23111939 78.60971951 C140.53952744 78.63158221 136.84797662 78.65896952 133.15641785 78.68577576 C126.16542831 78.7356988 119.17441594 78.78063907 112.18338174 78.82379812 C104.22454893 78.87317381 96.2657574 78.92809071 88.30696452 78.98347771 C71.93466152 79.0972918 55.5623207 79.20413209 39.18994141 79.30639648 C40.60247066 84.64524483 42.16509241 88.09930543 45.62744141 92.43139648 C46.05976074 92.97836182 46.49208008 93.52532715 46.9375 94.08886719 C50.76017527 98.88532012 54.73826112 103.55999753 58.78540039 108.16821289 C62.18994141 112.09307171 62.18994141 112.09307171 62.18994141 114.30639648 C63.03615917 114.30086573 63.03615917 114.30086573 63.89947224 114.29522324 C77.61997768 114.20692467 91.34043342 114.14096783 105.06116199 114.0991478 C111.6963997 114.07824587 118.3314328 114.04988021 124.96655273 114.00463867 C131.36615201 113.96127459 137.76555411 113.93727902 144.16528893 113.92688751 C146.61062412 113.91947921 149.05594815 113.90501316 151.50119972 113.88347626 C154.91827602 113.85456855 158.3345307 113.85043529 161.75170898 113.85229492 C162.76950439 113.83791382 163.7872998 113.82353271 164.8359375 113.80871582 C165.76561844 113.81421448 166.69529938 113.81971313 167.65315247 113.82537842 C168.86577114 113.81984766 168.86577114 113.81984766 170.10288715 113.81420517 C172.18994141 114.30639648 172.18994141 114.30639648 173.95010185 116.12273502 C175.74797429 119.28922922 175.60038864 122.32667126 175.56225586 125.86962891 C175.56590652 126.62628845 175.56955719 127.382948 175.57331848 128.16253662 C175.5814194 130.66254171 175.56781164 133.16189733 175.55322266 135.66186523 C175.55270372 137.40578715 175.55322271 139.14970965 175.55473328 140.89363098 C175.55464356 144.55124635 175.54421953 148.20864132 175.52612305 151.86621094 C175.50352005 156.53540218 175.50287663 161.20426908 175.50964069 165.87349987 C175.51299784 169.47765439 175.50631647 173.08173617 175.49651146 176.68587685 C175.49268286 178.40611705 175.49150145 180.12636539 175.49309731 181.84660912 C175.49651802 203.91494892 175.49651802 203.91494892 170.31494141 211.05639648 C169.82251953 211.75249023 169.33009766 212.44858398 168.82275391 213.16577148 C168.28392578 213.87217773 167.74509766 214.57858398 167.18994141 215.30639648 C166.58794922 216.15331055 165.98595703 217.00022461 165.36572266 217.87280273 C162.86869553 220.6657074 160.63057566 221.904938 157.25244141 223.49389648 C156.23279297 223.98245117 155.21314453 224.47100586 154.16259766 224.97436523 C153.18162109 225.41393555 152.20064453 225.85350586 151.18994141 226.30639648 C150.44277894 226.65835398 149.69561647 227.01031147 148.92581272 227.37293434 C145.63234478 228.49664496 142.92365773 228.56401295 139.44334412 228.57382202 C138.77783619 228.57835313 138.11232827 228.58288425 137.42665344 228.58755267 C135.20371661 228.60018037 132.9810253 228.59857735 130.75805664 228.59692383 C129.16104315 228.60291037 127.56403256 228.60971621 125.96702576 228.61727905 C121.63192813 228.63493999 117.29690948 228.63963466 112.96177936 228.64091063 C110.2495007 228.64233348 107.53724203 228.64660577 104.82496834 228.65190506 C95.35115412 228.67041026 85.87739615 228.67857563 76.40356445 228.67700195 C67.59277077 228.67580253 58.78222283 228.69686435 49.97149128 228.72848928 C42.39333465 228.75471398 34.81525793 228.76536656 27.23705631 228.76409113 C22.71728539 228.76358304 18.19773259 228.76918074 13.67800713 228.79044724 C9.42040321 228.80993259 5.16322301 228.80988441 0.90560341 228.79541397 C-0.64870962 228.79333701 -2.20304986 228.7979597 -3.75731659 228.81013489 C-17.2438871 228.9088536 -27.86935516 227.22923842 -37.75146484 217.53686523 C-45.367649 209.28479474 -47.27604635 201.22120372 -47.20849609 190.34936523 C-47.21136627 189.32458572 -47.21423645 188.29980621 -47.2171936 187.24397278 C-47.21922487 185.09167931 -47.21376101 182.93936698 -47.20117188 180.78710938 C-47.18502232 177.48648261 -47.2010952 174.18706503 -47.22021484 170.88647461 C-47.21823386 168.79076878 -47.2143932 166.6950637 -47.20849609 164.59936523 C-47.21456879 163.6118779 -47.22064148 162.62439056 -47.22689819 161.60697937 C-47.21271347 160.23458855 -47.21271347 160.23458855 -47.19824219 158.83447266 C-47.19585541 158.03031418 -47.19346863 157.2261557 -47.19100952 156.39762878 C-46.70087533 153.70703433 -45.96246778 152.97119984 -43.81005859 151.30639648 C-41.44468498 150.92442894 -41.44468498 150.92442894 -38.59664917 150.91439819 C-37.51695862 150.90330521 -36.43726807 150.89221222 -35.32485962 150.88078308 C-34.14032196 150.88378922 -32.9557843 150.88679535 -31.73535156 150.88989258 C-30.48806274 150.88130722 -29.24077393 150.87272186 -27.95568848 150.86387634 C-24.5342878 150.84306203 -21.11331681 150.83540295 -17.69188452 150.83321714 C-14.11550131 150.82756223 -10.53923682 150.80429409 -6.96292114 150.78262329 C-0.1891538 150.74408182 6.58457964 150.71987343 13.35842884 150.70149863 C25.49957531 150.66809707 37.64062044 150.61046568 49.78164566 150.54750693 C54.04560436 150.52596496 58.30952771 150.51072424 62.57352853 150.50066733 C65.84037363 150.49202946 69.10719466 150.47745596 72.37402344 150.46411133 C73.56260956 150.463069 74.75119568 150.46202667 75.97579956 150.46095276 C77.04985046 150.45549942 78.12390137 150.45004608 79.23049927 150.44442749 C80.16959703 150.4418714 81.1086948 150.4393153 82.07625008 150.43668175 C84.17562351 150.54146929 84.17562351 150.54146929 85.18994141 149.30639648 C85.74819675 146.62073564 85.57016558 144.91730492 84.11230469 142.57495117 C82.54804332 140.55705928 80.9202849 138.61453655 79.25244141 136.68139648 C78.13909944 135.35592664 77.0258196 134.03040462 75.91259766 132.70483398 C75.32962921 132.0551767 74.74666077 131.40551941 74.14602661 130.73617554 C72.18994141 128.30639648 72.18994141 128.30639648 70.71664429 125.51235962 C68.13684813 121.18361228 65.81268884 118.00734789 60.86546898 116.68516159 C53.53573344 115.67875484 46.13390299 115.97511356 38.75634766 116.11889648 C36.35262206 116.12459589 33.94887862 116.12500524 31.54515076 116.12036133 C25.23710479 116.12036133 18.93133236 116.18338543 12.62384033 116.26239014 C2.50462342 116.37741568 -7.6153342 116.39210711 -17.73509407 116.41488647 C-21.2731255 116.43124379 -24.81023427 116.47177541 -28.3480072 116.51660156 C-30.5025914 116.53281852 -32.65717812 116.54870594 -34.81176758 116.56420898 C-35.80031738 116.58292557 -36.78886719 116.60164215 -37.80737305 116.6209259 C-39.15508034 116.62596382 -39.15508034 116.62596382 -40.53001404 116.63110352 C-41.31291022 116.64078156 -42.09580641 116.65045959 -42.90242672 116.66043091 C-43.8467045 116.48518387 -43.8467045 116.48518387 -44.81005859 116.30639648 C-47.30153325 112.5691845 -47.12682174 109.62409266 -47.14819336 105.29345703 C-47.15972946 104.47669998 -47.17126556 103.65994293 -47.18315125 102.81843567 C-47.21751588 100.10997603 -47.23598157 97.40174535 -47.25146484 94.69311523 C-47.25836775 93.7645402 -47.26527065 92.83596516 -47.27238274 91.87925148 C-47.30825907 86.95481824 -47.33176856 82.03049995 -47.34545898 77.10595703 C-47.36191952 72.04994718 -47.42020164 66.99535776 -47.48860264 61.9398222 C-47.5336982 58.02835584 -47.54697694 54.11721881 -47.55207634 50.20551491 C-47.55990972 48.34417869 -47.57936819 46.48284965 -47.61129951 44.62177086 C-47.8214953 31.49333175 -46.66577856 20.84633343 -37.43995667 10.69975281 C-26.51307843 0.32879692 -14.28421804 0.00436292 0 0 Z " fill="#FBFBFB" transform="translate(185.81005859375,135.693603515625)"/>
<path d="M0 0 C0.66 0.33 1.32 0.66 2 1 C-1.63 4.63 -5.26 8.26 -9 12 C-9.66 11.67 -10.32 11.34 -11 11 C-9.73347137 9.53792657 -8.46161082 8.08047074 -7.1875 6.625 C-6.47980469 5.81289062 -5.77210938 5.00078125 -5.04296875 4.1640625 C-3 2 -3 2 0 0 Z " fill="#CCCCCC" transform="translate(155,141)"/>
</svg>
